# xmcd
#
# Track frame offsets:
#	150
#	22847
#	39384
#	58865
#	77887
#	96821
#	127030
#	149118
#	170568
#	195168
#	217290
#	237403
#
# Disc length: 3467 seconds
# Revision: 0
# Processed by: cddbd v1.5.2PL0 Copyright (c) Steve Scherf et al.
# Submitted via: dBpowerAMP V12.0
#
DISCID=af0d890c
DTITLE=Billy Thompson - BT
DYEAR=1900
DGENRE=Blues
TTITLE0=Burn it Down, Bernadette
TTITLE1=Phione
TTITLE2=Black Rain
TTITLE3=Silent Warrior
TTITLE4=Mud Island Woman
TTITLE5=Stranger
TTITLE6=That Devil
TTITLE7=In the Back of Beyond
TTITLE8=Children of the Sun
TTITLE9=Hourglass
TTITLE10=Long Train Runing
TTITLE11=Rason for Goin' Fishin'
EXTD=
EXTT0=
EXTT1=
EXTT2=
EXTT3=
EXTT4=
EXTT5=
EXTT6=
EXTT7=
EXTT8=
EXTT9=
EXTT10=
EXTT11=
PLAYORDER=
